<svg width="20" height="20" viewBox="0 0 20 20" fill="none" xmlns="http://www.w3.org/2000/svg">
<g id="Group">
<path id="Vector" d="M16.0491 16.8645C14.379 18.3512 12.2199 19.1707 9.98392 19.1667C4.92065 19.1667 0.805786 15.0518 0.805786 9.98852C0.805786 5.11646 4.61471 1.12397 9.41028 0.833334V4.67285C6.72568 4.95584 4.63001 7.23508 4.63001 9.98852C4.63001 12.9408 7.03162 15.3424 9.98392 15.3424C11.2536 15.3424 12.4238 14.8988 13.3416 14.1569L16.0491 16.8645Z" fill="#2F80ED"/>
<path id="Vector_2" d="M19.1392 10.5622C19.0168 12.6578 18.1831 14.5699 16.8599 16.0537L14.1524 13.3462C14.7975 12.5496 15.1962 11.582 15.2997 10.5622H19.1392ZM19.1392 9.41489H15.2997C15.1702 8.20155 14.629 7.06919 13.7661 6.20636C12.9033 5.34353 11.771 4.80232 10.5576 4.67285V0.833334C15.162 1.10868 18.8638 4.81052 19.1392 9.41489Z" fill="#60A3FD"/>
</g>
</svg>
