<svg width="22" height="22" viewBox="0 0 22 22" fill="none" xmlns="http://www.w3.org/2000/svg">
<g id="money 2">
<path id="Vector" d="M11 1.83333C5.94004 1.83333 1.83337 5.94 1.83337 11C1.83337 16.06 5.94004 20.1667 11 20.1667C16.06 20.1667 20.1667 16.06 20.1667 11C20.1667 5.94 16.06 1.83333 11 1.83333ZM15.7575 14.6117C15.7209 14.6942 15.675 14.7675 15.6109 14.8317L14.0617 16.3808C13.9242 16.5183 13.75 16.5825 13.5759 16.5825C13.4017 16.5825 13.2275 16.5183 13.09 16.3808C12.9622 16.2515 12.8905 16.0769 12.8905 15.895C12.8905 15.7131 12.9622 15.5385 13.09 15.4092L13.4659 15.0333H8.34171C7.15004 15.0333 6.18754 14.0617 6.18754 12.8792V11.2567C6.18754 10.8808 6.49921 10.5692 6.87504 10.5692C7.25087 10.5692 7.56254 10.8808 7.56254 11.2567V12.8792C7.56254 13.31 7.91087 13.6583 8.34171 13.6583H13.4659L13.09 13.2825C12.9622 13.1531 12.8905 12.9786 12.8905 12.7967C12.8905 12.6148 12.9622 12.4402 13.09 12.3108C13.3559 12.045 13.7959 12.045 14.0617 12.3108L15.6109 13.86C15.675 13.9242 15.7209 13.9975 15.7575 14.08C15.8309 14.2542 15.8309 14.4467 15.7575 14.6117ZM15.8125 10.7433C15.8125 11.1192 15.5009 11.4308 15.125 11.4308C14.7492 11.4308 14.4375 11.1192 14.4375 10.7433V9.12083C14.4375 8.91419 14.3554 8.716 14.2093 8.56988C14.0632 8.42376 13.865 8.34167 13.6584 8.34167H8.53421L8.91004 8.70833C9.17587 8.97417 9.17587 9.41417 8.91004 9.68C8.77254 9.8175 8.59837 9.88167 8.42421 9.88167C8.25004 9.88167 8.07587 9.8175 7.93837 9.68L6.38921 8.13083C6.327 8.06731 6.27725 7.99269 6.24254 7.91083C6.20628 7.82851 6.18755 7.73954 6.18755 7.64958C6.18755 7.55963 6.20628 7.47066 6.24254 7.38833C6.27921 7.30583 6.32504 7.22333 6.38921 7.15917L7.93837 5.61C8.20421 5.34417 8.64421 5.34417 8.91004 5.61C9.17587 5.87583 9.17587 6.31583 8.91004 6.58167L8.53421 6.9575H13.6584C14.85 6.9575 15.8125 7.92917 15.8125 9.11167V10.7433Z" fill="#F2994A"/>
</g>
</svg>
