<svg width="22" height="22" viewBox="0 0 22 22" fill="none" xmlns="http://www.w3.org/2000/svg">
<g id="money 1">
<path id="Vector" d="M19.7632 9.84699L18.5254 8.39539C18.2962 8.11977 18.1037 7.60528 18.1037 7.23779V5.67594C18.1037 4.70208 17.306 3.90278 16.3341 3.90278H14.7753C14.4086 3.90278 13.886 3.70985 13.6109 3.48016L12.1622 2.23987C11.5295 1.69782 10.4934 1.69782 9.86078 2.23987L8.39375 3.48016C8.11868 3.70985 7.60522 3.90278 7.23846 3.90278H5.65224C4.68033 3.90278 3.88263 4.70208 3.88263 5.67594V7.23779C3.88263 7.59609 3.69925 8.11058 3.47003 8.3862L2.23222 9.84699C1.70042 10.4901 1.70042 11.5191 2.23222 12.1438L3.47003 13.6046C3.69925 13.871 3.88263 14.3947 3.88263 14.753V16.3241C3.88263 17.2979 4.68033 18.0972 5.65224 18.0972H7.24763C7.60522 18.0972 8.12785 18.2902 8.40292 18.5198L9.85161 19.7601C10.4843 20.3022 11.5204 20.3022 12.153 19.7601L13.6017 18.5198C13.8768 18.2902 14.3902 18.0972 14.757 18.0972H16.3157C17.2876 18.0972 18.0853 17.2979 18.0853 16.3241V14.7622C18.0853 14.3947 18.2779 13.8802 18.5071 13.6046L19.7449 12.153C20.3042 11.5283 20.3042 10.4901 19.7632 9.84699Z" fill="#EB5757"/>
<path id="Vector_2" fill-rule="evenodd" clip-rule="evenodd" d="M10.6324 9.12487C11.4094 9.12487 12.0393 8.51862 12.0393 7.77077C12.0393 7.02292 11.4094 6.41667 10.6324 6.41667C9.85546 6.41667 9.22559 7.02292 9.22559 7.77077C9.22559 8.51862 9.85546 9.12487 10.6324 9.12487ZM15.0018 8.53789C15.0018 9.16068 14.4773 9.66554 13.8302 9.66554C13.1832 9.66554 12.6587 9.16068 12.6587 8.53789C12.6587 7.91511 13.1832 7.41025 13.8302 7.41025C14.4773 7.41025 15.0018 7.91511 15.0018 8.53789ZM7.58821 10.5668C8.23525 10.5668 8.75979 10.062 8.75979 9.43918C8.75979 8.8164 8.23525 8.31153 7.58821 8.31153C6.94116 8.31153 6.41663 8.8164 6.41663 9.43918C6.41663 10.062 6.94116 10.5668 7.58821 10.5668ZM15.5637 11.468C16.0808 11.468 16.5 11.0645 16.5 10.5668C16.5 10.0691 16.0808 9.6656 15.5637 9.6656C15.0465 9.6656 14.6273 10.0691 14.6273 10.5668C14.6273 11.0645 15.0465 11.468 15.5637 11.468ZM11.2277 9.79964C12.9467 9.79964 14.5744 11.126 14.8577 12.7574C14.9873 13.5246 14.7953 14.2548 14.3103 14.8047C13.8253 15.3547 13.1147 15.6597 12.3032 15.6597H10.0561C9.33588 15.6597 8.67326 15.3871 8.20271 14.8925C7.72735 14.398 7.49688 13.7418 7.5593 13.0486C7.71775 11.2554 9.35988 9.79964 11.2277 9.79964Z" fill="white"/>
</g>
</svg>
