<svg width="22" height="22" viewBox="0 0 22 22" fill="none" xmlns="http://www.w3.org/2000/svg">
<g id="vuesax/outline/money-recive">
<g id="money-recive">
<path id="Vector" d="M11.9625 14.8958H10.2392C9.02005 14.8958 8.02087 13.8692 8.02087 12.6042C8.02087 12.2283 8.33254 11.9167 8.70837 11.9167C9.08421 11.9167 9.39587 12.2283 9.39587 12.6042C9.39587 13.1083 9.77172 13.5208 10.2392 13.5208H11.9625C12.32 13.5208 12.6042 13.2 12.6042 12.8058C12.6042 12.3108 12.4667 12.2375 12.155 12.1275L9.39587 11.165C8.80921 10.9633 8.02087 10.5325 8.02087 9.18499C8.02087 8.03916 8.92839 7.09499 10.0376 7.09499H11.7609C12.98 7.09499 13.9792 8.12166 13.9792 9.38666C13.9792 9.76249 13.6675 10.0742 13.2917 10.0742C12.9159 10.0742 12.6042 9.76249 12.6042 9.38666C12.6042 8.88249 12.2284 8.46999 11.7609 8.46999H10.0376C9.68005 8.46999 9.39587 8.79082 9.39587 9.18499C9.39587 9.67999 9.53337 9.75331 9.84503 9.86332L12.6042 10.8258C13.1909 11.0275 13.9792 11.4583 13.9792 12.8058C13.9792 13.9608 13.0717 14.8958 11.9625 14.8958Z" fill="#27AE60"/>
<path id="Vector_2" d="M11 15.8125C10.6242 15.8125 10.3125 15.5008 10.3125 15.125V6.875C10.3125 6.49917 10.6242 6.1875 11 6.1875C11.3758 6.1875 11.6875 6.49917 11.6875 6.875V15.125C11.6875 15.5008 11.3758 15.8125 11 15.8125Z" fill="#27AE60"/>
<path id="Vector_3" d="M11 20.8542C5.56421 20.8542 1.14587 16.4358 1.14587 11C1.14587 5.56417 5.56421 1.14583 11 1.14583C11.3759 1.14583 11.6875 1.4575 11.6875 1.83333C11.6875 2.20917 11.3759 2.52083 11 2.52083C6.32504 2.52083 2.52087 6.325 2.52087 11C2.52087 15.675 6.32504 19.4792 11 19.4792C15.675 19.4792 19.4792 15.675 19.4792 11C19.4792 10.6242 19.7909 10.3125 20.1667 10.3125C20.5425 10.3125 20.8542 10.6242 20.8542 11C20.8542 16.4358 16.4359 20.8542 11 20.8542Z" fill="#27AE60"/>
</g>
</g>
</svg>
